<mxfile host="65bd71144e">
    <diagram id="VMVIUYLv-pnosSpSS8Mc" name="Page-1">
        <mxGraphModel dx="534" dy="590" grid="1" gridSize="10" guides="1" tooltips="1" connect="1" arrows="1" fold="1" page="1" pageScale="1" pageWidth="850" pageHeight="1100" math="0" shadow="0">
            <root>
                <mxCell id="0"/>
                <mxCell id="1" parent="0"/>
                <mxCell id="214" value="" style="rounded=0;whiteSpace=wrap;html=1;fillColor=#FCFCFC;" vertex="1" parent="1">
                    <mxGeometry x="30" y="33" width="790" height="1337" as="geometry"/>
                </mxCell>
                <mxCell id="129" style="edgeStyle=none;html=1;fontColor=#000000;labelBorderColor=none;strokeColor=#26CCFF;strokeWidth=2;" edge="1" parent="1" source="130" target="138">
                    <mxGeometry relative="1" as="geometry">
                        <mxPoint x="317" y="178" as="sourcePoint"/>
                        <mxPoint x="382" y="178" as="targetPoint"/>
                    </mxGeometry>
                </mxCell>
                <mxCell id="130" value="&lt;font color=&quot;#26ccff&quot;&gt;&lt;b&gt;App Idle or Playing&lt;/b&gt;&lt;/font&gt;" style="rounded=1;whiteSpace=wrap;html=1;arcSize=19;fillColor=none;fontColor=#000000;strokeColor=#26ccff;strokeWidth=2;" vertex="1" parent="1">
                    <mxGeometry x="130" y="143" width="100" height="60" as="geometry"/>
                </mxCell>
                <mxCell id="131" style="edgeStyle=none;html=1;exitX=1;exitY=0.5;exitDx=0;exitDy=0;entryX=0;entryY=0.5;entryDx=0;entryDy=0;fontColor=#000000;labelBorderColor=none;strokeColor=#26CCFF;strokeWidth=2;" edge="1" parent="1" source="132" target="130">
                    <mxGeometry relative="1" as="geometry"/>
                </mxCell>
                <mxCell id="132" value="" style="ellipse;fillColor=#26CCFF;strokeColor=#26CCFF;fontColor=#000000;strokeWidth=2;" vertex="1" parent="1">
                    <mxGeometry x="80" y="163" width="20" height="20" as="geometry"/>
                </mxCell>
                <mxCell id="133" value="&lt;font color=&quot;#26ccff&quot;&gt;&lt;b&gt;Create&lt;/b&gt;&lt;br&gt;&lt;/font&gt;&lt;div&gt;&lt;span&gt;&lt;font color=&quot;#26ccff&quot;&gt;/n = n+1&amp;nbsp;&lt;/font&gt;&lt;/span&gt;&lt;/div&gt;" style="text;html=1;align=left;verticalAlign=middle;resizable=0;points=[];autosize=1;strokeColor=none;fillColor=none;fontColor=#000000;strokeWidth=2;" vertex="1" parent="1">
                    <mxGeometry x="234" y="139" width="60" height="30" as="geometry"/>
                </mxCell>
                <mxCell id="134" value="&lt;div style=&quot;text-align: left&quot;&gt;&lt;br&gt;&lt;/div&gt;" style="text;html=1;align=center;verticalAlign=middle;resizable=0;points=[];autosize=1;strokeColor=none;fillColor=none;fontColor=#000000;" vertex="1" parent="1">
                    <mxGeometry x="437" y="308" width="20" height="20" as="geometry"/>
                </mxCell>
                <mxCell id="135" value="&lt;div style=&quot;text-align: left&quot;&gt;&lt;b&gt;Save Title&lt;br&gt;&lt;/b&gt;&lt;span style=&quot;font-size: 11px&quot;&gt;/title = &quot;New Project&quot;&lt;/span&gt;&lt;b&gt;&lt;br&gt;&lt;/b&gt;&lt;/div&gt;" style="text;html=1;align=center;verticalAlign=middle;resizable=0;points=[];autosize=1;strokeColor=none;fillColor=none;fontColor=#000000;" vertex="1" parent="1">
                    <mxGeometry x="222" y="230" width="120" height="30" as="geometry"/>
                </mxCell>
                <mxCell id="136" style="edgeStyle=none;html=1;strokeColor=#26CCFF;strokeWidth=2;" edge="1" parent="1" source="138" target="140">
                    <mxGeometry relative="1" as="geometry"/>
                </mxCell>
                <mxCell id="137" style="edgeStyle=none;html=1;entryX=0.75;entryY=1;entryDx=0;entryDy=0;strokeColor=#000000;" edge="1" parent="1" source="138" target="130">
                    <mxGeometry relative="1" as="geometry">
                        <Array as="points">
                            <mxPoint x="337" y="228"/>
                            <mxPoint x="205" y="228"/>
                        </Array>
                    </mxGeometry>
                </mxCell>
                <mxCell id="138" value="&lt;b&gt;&lt;font color=&quot;#26ccff&quot;&gt;Project&lt;br&gt;Created&lt;/font&gt;&lt;/b&gt;" style="rounded=1;whiteSpace=wrap;html=1;fillColor=none;fontColor=#000000;strokeColor=#26CCFF;strokeWidth=2;" vertex="1" parent="1">
                    <mxGeometry x="292" y="143" width="90" height="60" as="geometry"/>
                </mxCell>
                <mxCell id="139" style="edgeStyle=none;html=1;strokeColor=#000000;" edge="1" parent="1" source="140" target="143">
                    <mxGeometry relative="1" as="geometry"/>
                </mxCell>
                <mxCell id="140" value="&lt;font color=&quot;#26ccff&quot;&gt;&lt;b&gt;Project&lt;br&gt;Title Edition&lt;/b&gt;&lt;/font&gt;" style="rounded=1;whiteSpace=wrap;html=1;fillColor=none;fontColor=#000000;strokeColor=#26CCFF;strokeWidth=2;" vertex="1" parent="1">
                    <mxGeometry x="474" y="143" width="90" height="60" as="geometry"/>
                </mxCell>
                <mxCell id="141" style="edgeStyle=none;html=1;strokeColor=#000000;exitX=0.5;exitY=1;exitDx=0;exitDy=0;entryX=0.25;entryY=1;entryDx=0;entryDy=0;" edge="1" parent="1" source="143" target="130">
                    <mxGeometry relative="1" as="geometry">
                        <Array as="points">
                            <mxPoint x="694" y="288"/>
                            <mxPoint x="155" y="288"/>
                        </Array>
                    </mxGeometry>
                </mxCell>
                <mxCell id="142" style="edgeStyle=none;html=1;entryX=0.5;entryY=1;entryDx=0;entryDy=0;exitX=0.5;exitY=1;exitDx=0;exitDy=0;strokeColor=#000000;strokeWidth=1;" edge="1" parent="1" source="140" target="130">
                    <mxGeometry relative="1" as="geometry">
                        <Array as="points">
                            <mxPoint x="519" y="268"/>
                            <mxPoint x="180" y="268"/>
                        </Array>
                    </mxGeometry>
                </mxCell>
                <mxCell id="143" value="Project Title Edited" style="rounded=1;whiteSpace=wrap;html=1;fillColor=none;fontColor=#000000;strokeColor=#000000;" vertex="1" parent="1">
                    <mxGeometry x="649" y="143" width="90" height="60" as="geometry"/>
                </mxCell>
                <mxCell id="144" value="&lt;b&gt;Submit&lt;/b&gt;" style="text;html=1;align=left;verticalAlign=middle;resizable=0;points=[];autosize=1;strokeColor=none;fillColor=none;fontColor=#000000;" vertex="1" parent="1">
                    <mxGeometry x="582" y="174.99999999999994" width="60" height="20" as="geometry"/>
                </mxCell>
                <mxCell id="145" style="edgeStyle=orthogonalEdgeStyle;html=1;strokeColor=#26CCFF;entryX=0.629;entryY=-0.007;entryDx=0;entryDy=0;entryPerimeter=0;curved=1;strokeWidth=2;fontColor=#26CCFF;" edge="1" parent="1" target="140">
                    <mxGeometry relative="1" as="geometry">
                        <Array as="points">
                            <mxPoint x="502" y="118"/>
                            <mxPoint x="531" y="118"/>
                        </Array>
                        <mxPoint x="502" y="143" as="sourcePoint"/>
                    </mxGeometry>
                </mxCell>
                <mxCell id="146" value="&lt;span&gt;Valid &lt;br&gt;Keyboard &lt;br&gt;Input&lt;/span&gt;&lt;br&gt;&lt;div&gt;&lt;br&gt;&lt;/div&gt;" style="text;html=1;align=left;verticalAlign=middle;resizable=0;points=[];autosize=1;strokeColor=none;fillColor=none;fontColor=#26CCFF;fontStyle=1" vertex="1" parent="1">
                    <mxGeometry x="542" y="89.99999999999994" width="70" height="60" as="geometry"/>
                </mxCell>
                <mxCell id="147" value="&lt;b&gt;&lt;font color=&quot;#26ccff&quot;&gt;Edit Title&lt;/font&gt;&lt;br&gt;&lt;/b&gt;" style="text;html=1;align=left;verticalAlign=middle;resizable=0;points=[];autosize=1;strokeColor=none;fillColor=none;fontColor=#000000;" vertex="1" parent="1">
                    <mxGeometry x="393.5" y="148.99999999999994" width="70" height="20" as="geometry"/>
                </mxCell>
                <mxCell id="148" value="&lt;b&gt;Discard Title&lt;/b&gt;" style="text;html=1;align=left;verticalAlign=middle;resizable=0;points=[];autosize=1;strokeColor=none;fillColor=none;fontColor=#000000;" vertex="1" parent="1">
                    <mxGeometry x="522" y="229.99999999999994" width="90" height="20" as="geometry"/>
                </mxCell>
                <mxCell id="149" value="&lt;div style=&quot;text-align: left&quot;&gt;&lt;b&gt;Save Title&lt;br&gt;&lt;/b&gt;&lt;span style=&quot;font-size: 11px&quot;&gt;/title = input&lt;/span&gt;&lt;b&gt;&lt;br&gt;&lt;/b&gt;&lt;/div&gt;" style="text;html=1;align=center;verticalAlign=middle;resizable=0;points=[];autosize=1;strokeColor=none;fillColor=none;fontColor=#000000;" vertex="1" parent="1">
                    <mxGeometry x="412" y="298" width="70" height="30" as="geometry"/>
                </mxCell>
                <mxCell id="150" style="edgeStyle=none;html=1;fontColor=#000000;labelBorderColor=none;strokeColor=#FF9933;strokeWidth=2;" edge="1" parent="1" source="151" target="159">
                    <mxGeometry relative="1" as="geometry">
                        <mxPoint x="333" y="508" as="sourcePoint"/>
                        <mxPoint x="398" y="508" as="targetPoint"/>
                    </mxGeometry>
                </mxCell>
                <mxCell id="151" value="&lt;font color=&quot;#ff9933&quot;&gt;&lt;b&gt;App Idle or Playing&lt;/b&gt;&lt;/font&gt;" style="rounded=1;whiteSpace=wrap;html=1;arcSize=19;fillColor=none;fontColor=#000000;strokeColor=#ff9933;strokeWidth=2;" vertex="1" parent="1">
                    <mxGeometry x="146" y="473" width="100" height="60" as="geometry"/>
                </mxCell>
                <mxCell id="152" style="edgeStyle=none;html=1;exitX=1;exitY=0.5;exitDx=0;exitDy=0;entryX=0;entryY=0.5;entryDx=0;entryDy=0;fontColor=#000000;labelBorderColor=none;strokeColor=#ff9933;strokeWidth=2;" edge="1" parent="1" source="153" target="151">
                    <mxGeometry relative="1" as="geometry"/>
                </mxCell>
                <mxCell id="153" value="" style="ellipse;fillColor=#FF9933;strokeColor=#ff9933;fontColor=#000000;strokeWidth=2;" vertex="1" parent="1">
                    <mxGeometry x="96" y="493" width="20" height="20" as="geometry"/>
                </mxCell>
                <mxCell id="154" value="&lt;font color=&quot;#ff9933&quot;&gt;&lt;b&gt;Create&lt;/b&gt;&lt;br&gt;&lt;/font&gt;&lt;div&gt;&lt;span&gt;&lt;font color=&quot;#ff9933&quot;&gt;/n = n+1&amp;nbsp;&lt;/font&gt;&lt;/span&gt;&lt;/div&gt;" style="text;html=1;align=left;verticalAlign=middle;resizable=0;points=[];autosize=1;strokeColor=none;fillColor=none;fontColor=#000000;strokeWidth=2;" vertex="1" parent="1">
                    <mxGeometry x="250" y="469" width="60" height="30" as="geometry"/>
                </mxCell>
                <mxCell id="155" value="&lt;div style=&quot;text-align: left&quot;&gt;&lt;br&gt;&lt;/div&gt;" style="text;html=1;align=center;verticalAlign=middle;resizable=0;points=[];autosize=1;strokeColor=none;fillColor=none;fontColor=#000000;" vertex="1" parent="1">
                    <mxGeometry x="453" y="638" width="20" height="20" as="geometry"/>
                </mxCell>
                <mxCell id="156" value="&lt;div style=&quot;text-align: left&quot;&gt;&lt;font color=&quot;#ff9933&quot;&gt;&lt;b&gt;Save Title&lt;br&gt;&lt;/b&gt;&lt;span style=&quot;font-size: 11px&quot;&gt;/title = &quot;New Project&quot;&lt;/span&gt;&lt;/font&gt;&lt;b&gt;&lt;br&gt;&lt;/b&gt;&lt;/div&gt;" style="text;html=1;align=center;verticalAlign=middle;resizable=0;points=[];autosize=1;strokeColor=none;fillColor=none;fontColor=#000000;strokeWidth=2;" vertex="1" parent="1">
                    <mxGeometry x="238" y="560" width="120" height="30" as="geometry"/>
                </mxCell>
                <mxCell id="157" style="edgeStyle=none;html=1;strokeColor=#000000;" edge="1" parent="1" source="159" target="161">
                    <mxGeometry relative="1" as="geometry"/>
                </mxCell>
                <mxCell id="158" style="edgeStyle=none;html=1;entryX=0.75;entryY=1;entryDx=0;entryDy=0;strokeColor=#FF9933;strokeWidth=2;" edge="1" parent="1" source="159" target="151">
                    <mxGeometry relative="1" as="geometry">
                        <Array as="points">
                            <mxPoint x="353" y="558"/>
                            <mxPoint x="221" y="558"/>
                        </Array>
                    </mxGeometry>
                </mxCell>
                <mxCell id="159" value="&lt;font color=&quot;#ff9933&quot;&gt;&lt;b&gt;Project&lt;br&gt;Created&lt;/b&gt;&lt;/font&gt;" style="rounded=1;whiteSpace=wrap;html=1;fillColor=none;fontColor=#000000;strokeColor=#FF9933;strokeWidth=2;" vertex="1" parent="1">
                    <mxGeometry x="308" y="473" width="90" height="60" as="geometry"/>
                </mxCell>
                <mxCell id="160" style="edgeStyle=none;html=1;strokeColor=#000000;" edge="1" parent="1" source="161" target="164">
                    <mxGeometry relative="1" as="geometry"/>
                </mxCell>
                <mxCell id="161" value="Project&lt;br&gt;Title Edition" style="rounded=1;whiteSpace=wrap;html=1;fillColor=none;fontColor=#000000;strokeColor=#000000;" vertex="1" parent="1">
                    <mxGeometry x="490" y="473" width="90" height="60" as="geometry"/>
                </mxCell>
                <mxCell id="162" style="edgeStyle=none;html=1;strokeColor=#000000;exitX=0.5;exitY=1;exitDx=0;exitDy=0;entryX=0.25;entryY=1;entryDx=0;entryDy=0;" edge="1" parent="1" source="164" target="151">
                    <mxGeometry relative="1" as="geometry">
                        <Array as="points">
                            <mxPoint x="710" y="618"/>
                            <mxPoint x="171" y="618"/>
                        </Array>
                    </mxGeometry>
                </mxCell>
                <mxCell id="163" style="edgeStyle=none;html=1;entryX=0.5;entryY=1;entryDx=0;entryDy=0;exitX=0.5;exitY=1;exitDx=0;exitDy=0;strokeColor=#000000;" edge="1" parent="1" source="161" target="151">
                    <mxGeometry relative="1" as="geometry">
                        <Array as="points">
                            <mxPoint x="535" y="598"/>
                            <mxPoint x="196" y="598"/>
                        </Array>
                    </mxGeometry>
                </mxCell>
                <mxCell id="164" value="Project Title Edited" style="rounded=1;whiteSpace=wrap;html=1;fillColor=none;fontColor=#000000;strokeColor=#000000;" vertex="1" parent="1">
                    <mxGeometry x="665" y="473" width="90" height="60" as="geometry"/>
                </mxCell>
                <mxCell id="165" value="&lt;b&gt;Submit&lt;/b&gt;" style="text;html=1;align=left;verticalAlign=middle;resizable=0;points=[];autosize=1;strokeColor=none;fillColor=none;fontColor=#000000;" vertex="1" parent="1">
                    <mxGeometry x="598" y="504.99999999999994" width="60" height="20" as="geometry"/>
                </mxCell>
                <mxCell id="166" style="edgeStyle=orthogonalEdgeStyle;html=1;strokeColor=#000000;entryX=0.629;entryY=-0.007;entryDx=0;entryDy=0;entryPerimeter=0;curved=1;" edge="1" parent="1" target="161">
                    <mxGeometry relative="1" as="geometry">
                        <Array as="points">
                            <mxPoint x="518" y="448"/>
                            <mxPoint x="547" y="448"/>
                        </Array>
                        <mxPoint x="518" y="473" as="sourcePoint"/>
                    </mxGeometry>
                </mxCell>
                <mxCell id="167" value="&lt;b&gt;Valid &lt;br&gt;Keyboard &lt;br&gt;Input&lt;/b&gt;&lt;br&gt;&lt;div&gt;&lt;br&gt;&lt;/div&gt;" style="text;html=1;align=left;verticalAlign=middle;resizable=0;points=[];autosize=1;strokeColor=none;fillColor=none;fontColor=#000000;" vertex="1" parent="1">
                    <mxGeometry x="558" y="419.99999999999994" width="70" height="60" as="geometry"/>
                </mxCell>
                <mxCell id="168" value="&lt;b&gt;Edit Title&lt;br&gt;&lt;/b&gt;" style="text;html=1;align=left;verticalAlign=middle;resizable=0;points=[];autosize=1;strokeColor=none;fillColor=none;fontColor=#000000;" vertex="1" parent="1">
                    <mxGeometry x="410" y="507.99999999999994" width="70" height="20" as="geometry"/>
                </mxCell>
                <mxCell id="169" value="&lt;b&gt;Discard Title&lt;/b&gt;" style="text;html=1;align=left;verticalAlign=middle;resizable=0;points=[];autosize=1;strokeColor=none;fillColor=none;fontColor=#000000;" vertex="1" parent="1">
                    <mxGeometry x="538" y="548" width="90" height="20" as="geometry"/>
                </mxCell>
                <mxCell id="170" value="&lt;div style=&quot;text-align: left&quot;&gt;&lt;b&gt;Save Title&lt;br&gt;&lt;/b&gt;&lt;span style=&quot;font-size: 11px&quot;&gt;/title = input&lt;/span&gt;&lt;b&gt;&lt;br&gt;&lt;/b&gt;&lt;/div&gt;" style="text;html=1;align=center;verticalAlign=middle;resizable=0;points=[];autosize=1;strokeColor=none;fillColor=none;fontColor=#000000;" vertex="1" parent="1">
                    <mxGeometry x="428" y="628" width="70" height="30" as="geometry"/>
                </mxCell>
                <mxCell id="171" style="edgeStyle=none;html=1;fontColor=#FF99CC;labelBorderColor=none;strokeColor=#FF99CC;strokeWidth=2;" edge="1" parent="1" source="172" target="180">
                    <mxGeometry relative="1" as="geometry">
                        <mxPoint x="287" y="868" as="sourcePoint"/>
                        <mxPoint x="352" y="868" as="targetPoint"/>
                    </mxGeometry>
                </mxCell>
                <mxCell id="172" value="&lt;b&gt;App Idle or Playing&lt;/b&gt;" style="rounded=1;whiteSpace=wrap;html=1;arcSize=19;fillColor=none;fontColor=#FF99CC;strokeColor=#FF99CC;strokeWidth=2;" vertex="1" parent="1">
                    <mxGeometry x="100" y="833" width="100" height="60" as="geometry"/>
                </mxCell>
                <mxCell id="173" style="edgeStyle=none;html=1;exitX=1;exitY=0.5;exitDx=0;exitDy=0;entryX=0;entryY=0.5;entryDx=0;entryDy=0;fontColor=#FF99CC;labelBorderColor=none;strokeColor=#FF99CC;strokeWidth=2;" edge="1" parent="1" source="174" target="172">
                    <mxGeometry relative="1" as="geometry"/>
                </mxCell>
                <mxCell id="174" value="" style="ellipse;fillColor=#FF99CC;strokeColor=#FF99CC;fontColor=#FF99CC;strokeWidth=2;" vertex="1" parent="1">
                    <mxGeometry x="50" y="853" width="20" height="20" as="geometry"/>
                </mxCell>
                <mxCell id="175" value="&lt;b&gt;Create&lt;/b&gt;&lt;br&gt;&lt;div&gt;&lt;span&gt;/n = n+1&amp;nbsp;&lt;/span&gt;&lt;/div&gt;" style="text;html=1;align=left;verticalAlign=middle;resizable=0;points=[];autosize=1;strokeColor=none;fillColor=none;fontColor=#FF99CC;strokeWidth=2;" vertex="1" parent="1">
                    <mxGeometry x="204" y="829" width="60" height="30" as="geometry"/>
                </mxCell>
                <mxCell id="176" value="&lt;div style=&quot;text-align: left&quot;&gt;&lt;br&gt;&lt;/div&gt;" style="text;html=1;align=center;verticalAlign=middle;resizable=0;points=[];autosize=1;strokeColor=none;fillColor=none;fontColor=#000000;" vertex="1" parent="1">
                    <mxGeometry x="407" y="998" width="20" height="20" as="geometry"/>
                </mxCell>
                <mxCell id="177" value="&lt;div style=&quot;text-align: left&quot;&gt;&lt;b&gt;Save Title&lt;br&gt;&lt;/b&gt;&lt;span style=&quot;font-size: 11px&quot;&gt;/title = &quot;New Project&quot;&lt;/span&gt;&lt;b&gt;&lt;br&gt;&lt;/b&gt;&lt;/div&gt;" style="text;html=1;align=center;verticalAlign=middle;resizable=0;points=[];autosize=1;strokeColor=none;fillColor=none;fontColor=#000000;" vertex="1" parent="1">
                    <mxGeometry x="192" y="920" width="120" height="30" as="geometry"/>
                </mxCell>
                <mxCell id="178" style="edgeStyle=none;html=1;strokeColor=#FF99CC;strokeWidth=2;fontColor=#FF99CC;" edge="1" parent="1" source="180" target="182">
                    <mxGeometry relative="1" as="geometry"/>
                </mxCell>
                <mxCell id="179" style="edgeStyle=none;html=1;entryX=0.75;entryY=1;entryDx=0;entryDy=0;strokeColor=#000000;" edge="1" parent="1" source="180" target="172">
                    <mxGeometry relative="1" as="geometry">
                        <Array as="points">
                            <mxPoint x="307" y="918"/>
                            <mxPoint x="175" y="918"/>
                        </Array>
                    </mxGeometry>
                </mxCell>
                <mxCell id="180" value="&lt;b&gt;Project&lt;br&gt;Created&lt;/b&gt;" style="rounded=1;whiteSpace=wrap;html=1;fillColor=none;fontColor=#FF99CC;strokeColor=#FF99CC;strokeWidth=2;" vertex="1" parent="1">
                    <mxGeometry x="262" y="833" width="90" height="60" as="geometry"/>
                </mxCell>
                <mxCell id="181" style="edgeStyle=none;html=1;strokeColor=#000000;" edge="1" parent="1" source="182" target="185">
                    <mxGeometry relative="1" as="geometry"/>
                </mxCell>
                <mxCell id="182" value="&lt;b&gt;Project&lt;br&gt;Title Edition&lt;/b&gt;" style="rounded=1;whiteSpace=wrap;html=1;fillColor=none;fontColor=#FF99CC;strokeColor=#FF99CC;strokeWidth=2;" vertex="1" parent="1">
                    <mxGeometry x="444" y="833" width="90" height="60" as="geometry"/>
                </mxCell>
                <mxCell id="183" style="edgeStyle=none;html=1;strokeColor=#000000;exitX=0.5;exitY=1;exitDx=0;exitDy=0;entryX=0.25;entryY=1;entryDx=0;entryDy=0;" edge="1" parent="1" source="185" target="172">
                    <mxGeometry relative="1" as="geometry">
                        <Array as="points">
                            <mxPoint x="664" y="978"/>
                            <mxPoint x="125" y="978"/>
                        </Array>
                    </mxGeometry>
                </mxCell>
                <mxCell id="184" style="edgeStyle=none;html=1;entryX=0.5;entryY=1;entryDx=0;entryDy=0;exitX=0.5;exitY=1;exitDx=0;exitDy=0;strokeColor=#FF99CC;fontColor=#FF99CC;strokeWidth=2;" edge="1" parent="1" source="182" target="172">
                    <mxGeometry relative="1" as="geometry">
                        <Array as="points">
                            <mxPoint x="489" y="958"/>
                            <mxPoint x="150" y="958"/>
                        </Array>
                    </mxGeometry>
                </mxCell>
                <mxCell id="185" value="Project Title Edited" style="rounded=1;whiteSpace=wrap;html=1;fillColor=none;fontColor=#000000;strokeColor=#000000;" vertex="1" parent="1">
                    <mxGeometry x="619" y="833" width="90" height="60" as="geometry"/>
                </mxCell>
                <mxCell id="186" value="&lt;b&gt;Submit&lt;/b&gt;" style="text;html=1;align=left;verticalAlign=middle;resizable=0;points=[];autosize=1;strokeColor=none;fillColor=none;fontColor=#000000;" vertex="1" parent="1">
                    <mxGeometry x="552" y="865" width="60" height="20" as="geometry"/>
                </mxCell>
                <mxCell id="187" style="edgeStyle=orthogonalEdgeStyle;html=1;strokeColor=#000000;entryX=0.629;entryY=-0.007;entryDx=0;entryDy=0;entryPerimeter=0;curved=1;strokeWidth=2;fontColor=#000000;" edge="1" parent="1" target="182">
                    <mxGeometry relative="1" as="geometry">
                        <Array as="points">
                            <mxPoint x="472" y="808"/>
                            <mxPoint x="501" y="808"/>
                        </Array>
                        <mxPoint x="472" y="833" as="sourcePoint"/>
                    </mxGeometry>
                </mxCell>
                <mxCell id="188" value="&lt;b&gt;Valid &lt;br&gt;Keyboard &lt;br&gt;Input&lt;/b&gt;&lt;br&gt;&lt;div&gt;&lt;br&gt;&lt;/div&gt;" style="text;html=1;align=left;verticalAlign=middle;resizable=0;points=[];autosize=1;strokeColor=none;fillColor=none;fontColor=#000000;" vertex="1" parent="1">
                    <mxGeometry x="512" y="780" width="70" height="60" as="geometry"/>
                </mxCell>
                <mxCell id="189" value="&lt;b&gt;Edit Title&lt;br&gt;&lt;/b&gt;" style="text;html=1;align=left;verticalAlign=middle;resizable=0;points=[];autosize=1;strokeColor=none;fillColor=none;fontColor=#FF99CC;strokeWidth=2;" vertex="1" parent="1">
                    <mxGeometry x="364" y="868" width="70" height="20" as="geometry"/>
                </mxCell>
                <mxCell id="190" value="&lt;b&gt;Discard Title&lt;/b&gt;" style="text;html=1;align=left;verticalAlign=middle;resizable=0;points=[];autosize=1;strokeColor=none;fillColor=none;fontColor=#FF99CC;" vertex="1" parent="1">
                    <mxGeometry x="498" y="925" width="90" height="20" as="geometry"/>
                </mxCell>
                <mxCell id="191" value="&lt;div style=&quot;text-align: left&quot;&gt;&lt;b&gt;Save Title&lt;br&gt;&lt;/b&gt;&lt;span style=&quot;font-size: 11px&quot;&gt;/title = input&lt;/span&gt;&lt;b&gt;&lt;br&gt;&lt;/b&gt;&lt;/div&gt;" style="text;html=1;align=center;verticalAlign=middle;resizable=0;points=[];autosize=1;strokeColor=none;fillColor=none;fontColor=#000000;" vertex="1" parent="1">
                    <mxGeometry x="382" y="988" width="70" height="30" as="geometry"/>
                </mxCell>
                <mxCell id="193" style="edgeStyle=none;html=1;fontColor=#000000;labelBorderColor=none;strokeColor=#009999;strokeWidth=2;" edge="1" parent="1" source="194" target="202">
                    <mxGeometry relative="1" as="geometry">
                        <mxPoint x="306.5" y="1208" as="sourcePoint"/>
                        <mxPoint x="371.5" y="1208" as="targetPoint"/>
                    </mxGeometry>
                </mxCell>
                <mxCell id="194" value="&lt;b&gt;App Idle or Playing&lt;/b&gt;" style="rounded=1;whiteSpace=wrap;html=1;arcSize=19;fillColor=none;fontColor=#009999;strokeColor=#009999;strokeWidth=2;" vertex="1" parent="1">
                    <mxGeometry x="119.5" y="1173" width="100" height="60" as="geometry"/>
                </mxCell>
                <mxCell id="195" style="edgeStyle=none;html=1;exitX=1;exitY=0.5;exitDx=0;exitDy=0;entryX=0;entryY=0.5;entryDx=0;entryDy=0;fontColor=#000000;labelBorderColor=none;strokeColor=#009999;strokeWidth=2;" edge="1" parent="1" source="196" target="194">
                    <mxGeometry relative="1" as="geometry"/>
                </mxCell>
                <mxCell id="196" value="" style="ellipse;fillColor=#009999;strokeColor=#009999;fontColor=#000000;strokeWidth=2;" vertex="1" parent="1">
                    <mxGeometry x="69.5" y="1193" width="20" height="20" as="geometry"/>
                </mxCell>
                <mxCell id="197" value="&lt;font color=&quot;#009999&quot;&gt;&lt;b&gt;Create&lt;/b&gt;&lt;br&gt;&lt;/font&gt;&lt;div&gt;&lt;span&gt;&lt;font color=&quot;#009999&quot;&gt;/n = n+1&amp;nbsp;&lt;/font&gt;&lt;/span&gt;&lt;/div&gt;" style="text;html=1;align=left;verticalAlign=middle;resizable=0;points=[];autosize=1;strokeColor=none;fillColor=none;fontColor=#000000;strokeWidth=2;" vertex="1" parent="1">
                    <mxGeometry x="223.5" y="1169" width="60" height="30" as="geometry"/>
                </mxCell>
                <mxCell id="198" value="&lt;div style=&quot;text-align: left&quot;&gt;&lt;br&gt;&lt;/div&gt;" style="text;html=1;align=center;verticalAlign=middle;resizable=0;points=[];autosize=1;strokeColor=none;fillColor=none;fontColor=#009999;" vertex="1" parent="1">
                    <mxGeometry x="426.5" y="1338" width="20" height="20" as="geometry"/>
                </mxCell>
                <mxCell id="199" value="&lt;div style=&quot;text-align: left&quot;&gt;&lt;b&gt;Save Title&lt;br&gt;&lt;/b&gt;&lt;span style=&quot;font-size: 11px&quot;&gt;/title = &quot;New Project&quot;&lt;/span&gt;&lt;b&gt;&lt;br&gt;&lt;/b&gt;&lt;/div&gt;" style="text;html=1;align=center;verticalAlign=middle;resizable=0;points=[];autosize=1;strokeColor=none;fillColor=none;fontColor=#000000;" vertex="1" parent="1">
                    <mxGeometry x="211.5" y="1260" width="120" height="30" as="geometry"/>
                </mxCell>
                <mxCell id="200" style="edgeStyle=none;html=1;strokeColor=#009999;strokeWidth=2;" edge="1" parent="1" source="202" target="204">
                    <mxGeometry relative="1" as="geometry"/>
                </mxCell>
                <mxCell id="201" style="edgeStyle=none;html=1;entryX=0.75;entryY=1;entryDx=0;entryDy=0;strokeColor=#000000;strokeWidth=2;" edge="1" parent="1" source="202" target="194">
                    <mxGeometry relative="1" as="geometry">
                        <Array as="points">
                            <mxPoint x="326.5" y="1258"/>
                            <mxPoint x="194.5" y="1258"/>
                        </Array>
                    </mxGeometry>
                </mxCell>
                <mxCell id="202" value="&lt;b&gt;Project&lt;br&gt;Created&lt;/b&gt;" style="rounded=1;whiteSpace=wrap;html=1;fillColor=none;fontColor=#009999;strokeColor=#009999;strokeWidth=2;" vertex="1" parent="1">
                    <mxGeometry x="281.5" y="1173" width="90" height="60" as="geometry"/>
                </mxCell>
                <mxCell id="203" style="edgeStyle=none;html=1;strokeColor=#009999;strokeWidth=2;" edge="1" parent="1" source="204" target="207">
                    <mxGeometry relative="1" as="geometry"/>
                </mxCell>
                <mxCell id="204" value="&lt;b&gt;Project&lt;br&gt;Title Edition&lt;/b&gt;" style="rounded=1;whiteSpace=wrap;html=1;fillColor=none;fontColor=#009999;strokeColor=#009999;strokeWidth=2;" vertex="1" parent="1">
                    <mxGeometry x="463.5" y="1173" width="90" height="60" as="geometry"/>
                </mxCell>
                <mxCell id="205" style="edgeStyle=none;html=1;strokeColor=#009999;exitX=0.5;exitY=1;exitDx=0;exitDy=0;entryX=0.25;entryY=1;entryDx=0;entryDy=0;fontColor=#009999;strokeWidth=2;" edge="1" parent="1" source="207" target="194">
                    <mxGeometry relative="1" as="geometry">
                        <Array as="points">
                            <mxPoint x="683.5" y="1318"/>
                            <mxPoint x="144.5" y="1318"/>
                        </Array>
                    </mxGeometry>
                </mxCell>
                <mxCell id="206" style="edgeStyle=none;html=1;entryX=0.5;entryY=1;entryDx=0;entryDy=0;exitX=0.5;exitY=1;exitDx=0;exitDy=0;strokeColor=#000000;" edge="1" parent="1" source="204" target="194">
                    <mxGeometry relative="1" as="geometry">
                        <Array as="points">
                            <mxPoint x="508.5" y="1298"/>
                            <mxPoint x="169.5" y="1298"/>
                        </Array>
                    </mxGeometry>
                </mxCell>
                <mxCell id="207" value="&lt;b&gt;Project Title Edited&lt;/b&gt;" style="rounded=1;whiteSpace=wrap;html=1;fillColor=none;fontColor=#009999;strokeColor=#009999;strokeWidth=2;" vertex="1" parent="1">
                    <mxGeometry x="638.5" y="1173" width="90" height="60" as="geometry"/>
                </mxCell>
                <mxCell id="208" value="&lt;b&gt;&lt;font color=&quot;#009999&quot;&gt;Submit&lt;/font&gt;&lt;/b&gt;" style="text;html=1;align=left;verticalAlign=middle;resizable=0;points=[];autosize=1;strokeColor=none;fillColor=none;fontColor=#000000;strokeWidth=2;" vertex="1" parent="1">
                    <mxGeometry x="571.5" y="1205" width="60" height="20" as="geometry"/>
                </mxCell>
                <mxCell id="209" style="edgeStyle=orthogonalEdgeStyle;html=1;strokeColor=#000000;entryX=0.629;entryY=-0.007;entryDx=0;entryDy=0;entryPerimeter=0;curved=1;strokeWidth=1;" edge="1" parent="1" target="204">
                    <mxGeometry relative="1" as="geometry">
                        <Array as="points">
                            <mxPoint x="491.5" y="1148"/>
                            <mxPoint x="520.5" y="1148"/>
                        </Array>
                        <mxPoint x="491.5" y="1173" as="sourcePoint"/>
                    </mxGeometry>
                </mxCell>
                <mxCell id="210" value="&lt;b&gt;Valid &lt;br&gt;Keyboard &lt;br&gt;Input&lt;/b&gt;&lt;br&gt;&lt;div&gt;&lt;br&gt;&lt;/div&gt;" style="text;html=1;align=left;verticalAlign=middle;resizable=0;points=[];autosize=1;strokeColor=none;fillColor=none;fontColor=#000000;strokeWidth=2;" vertex="1" parent="1">
                    <mxGeometry x="531.5" y="1120" width="70" height="60" as="geometry"/>
                </mxCell>
                <mxCell id="211" value="&lt;b&gt;&lt;font color=&quot;#009999&quot;&gt;Edit Title&lt;/font&gt;&lt;br&gt;&lt;/b&gt;" style="text;html=1;align=left;verticalAlign=middle;resizable=0;points=[];autosize=1;strokeColor=none;fillColor=none;fontColor=#000000;strokeWidth=2;" vertex="1" parent="1">
                    <mxGeometry x="383.5" y="1208" width="70" height="20" as="geometry"/>
                </mxCell>
                <mxCell id="212" value="&lt;b&gt;Discard Title&lt;/b&gt;" style="text;html=1;align=left;verticalAlign=middle;resizable=0;points=[];autosize=1;strokeColor=none;fillColor=none;fontColor=#000000;strokeWidth=2;" vertex="1" parent="1">
                    <mxGeometry x="511.5" y="1248" width="90" height="20" as="geometry"/>
                </mxCell>
                <mxCell id="213" value="&lt;div style=&quot;text-align: left&quot;&gt;&lt;b&gt;Save Title&lt;br&gt;&lt;/b&gt;&lt;span style=&quot;font-size: 11px&quot;&gt;/title = input&lt;/span&gt;&lt;b&gt;&lt;br&gt;&lt;/b&gt;&lt;/div&gt;" style="text;html=1;align=center;verticalAlign=middle;resizable=0;points=[];autosize=1;strokeColor=none;fillColor=none;fontColor=#009999;" vertex="1" parent="1">
                    <mxGeometry x="401.5" y="1328" width="70" height="30" as="geometry"/>
                </mxCell>
            </root>
        </mxGraphModel>
    </diagram>
</mxfile>